<svg xmlns="http://www.w3.org/2000/svg" xmlns:xlink="http://www.w3.org/1999/xlink" width="242.094" height="249.796" viewBox="0 0 242.094 249.796">
  <defs>
    <style>
      .cls-1, .cls-22 {
        fill: #fff;
      }

      .cls-2 {
        fill: #ec5569;
      }

      .cls-3 {
        fill: #e63950;
      }

      .cls-4 {
        fill: #fff5f5;
      }

      .cls-5 {
        fill: #dce6eb;
      }

      .cls-6 {
        fill: #ffd064;
      }

      .cls-7 {
        fill: #ffc250;
      }

      .cls-8 {
        clip-path: url(#clip-path);
      }

      .cls-14, .cls-9 {
        fill: #01a4e9;
      }

      .cls-10, .cls-11, .cls-12, .cls-14, .cls-15, .cls-18, .cls-9 {
        stroke: #000;
      }

      .cls-10, .cls-11, .cls-12, .cls-14, .cls-15, .cls-16, .cls-17, .cls-18, .cls-9 {
        stroke-miterlimit: 10;
      }

      .cls-10, .cls-25 {
        fill: #ffd7e7;
      }

      .cls-11, .cls-15, .cls-16, .cls-17 {
        fill: none;
      }

      .cls-11, .cls-16, .cls-17 {
        stroke-linecap: round;
      }

      .cls-12, .cls-13 {
        fill: #e5e5e5;
      }

      .cls-14 {
        opacity: 0.54;
      }

      .cls-16 {
        stroke: #231f20;
      }

      .cls-17 {
        stroke: #f2ae1d;
      }

      .cls-18 {
        fill: #f5ae09;
      }

      .cls-19, .cls-20, .cls-21, .cls-22 {
        opacity: 0.51;
      }

      .cls-20 {
        fill: #0a0a0a;
      }

      .cls-21 {
        fill: #000c22;
      }

      .cls-23 {
        fill: #fd4585;
      }

      .cls-24 {
        fill: #070707;
        opacity: 0.15;
      }
    </style>
    <clipPath id="clip-path">
      <rect id="Rectangle_5121" data-name="Rectangle 5121" class="cls-1" width="134.465" height="191.192" transform="translate(0 -0.09)"/>
    </clipPath>
  </defs>
  <g id="Group_8626" data-name="Group 8626" transform="translate(-1087.406 -497.105)">
    <g id="love" transform="translate(1276.547 497.105) rotate(29)">
      <path id="Path_4450" data-name="Path 4450" class="cls-2" d="M43.434,0H10.057A10.057,10.057,0,0,0,0,10.057V31.948A10.057,10.057,0,0,0,10.057,42h4.79a.413.413,0,0,1,.413.413v10.8a1.409,1.409,0,0,0,2.436.966l11.33-12.047a.412.412,0,0,1,.3-.13H43.434A10.057,10.057,0,0,0,53.49,31.948V10.057A10.057,10.057,0,0,0,43.434,0Z" transform="translate(0 0)"/>
      <path id="Path_4451" data-name="Path 4451" class="cls-3" d="M19.49,36.933a.418.418,0,0,0-.4-.434H14.454c-5.377,0-9.736-4.741-9.736-10.59V2.856A11.476,11.476,0,0,1,5.076,0,10.053,10.053,0,0,0,0,8.739V30.63A10.057,10.057,0,0,0,10.057,40.687h4.79a.413.413,0,0,1,.413.413V51.9a1.409,1.409,0,0,0,2.436.966l1.795-1.908V36.933Z" transform="translate(0 1.318)"/>
      <path id="Path_4452" data-name="Path 4452" class="cls-2" d="M24.515,1.915h0a6.538,6.538,0,0,0-9.247,0L13.826,3.357a.881.881,0,0,1-1.245,0L11.162,1.938a6.538,6.538,0,0,0-9.247,0h0a6.538,6.538,0,0,0,0,9.247L12.582,21.851a.881.881,0,0,0,1.245,0l10.688-10.69A6.538,6.538,0,0,0,24.515,1.915Z" transform="translate(13.53 11.137)"/>
      <path id="Path_4453" data-name="Path 4453" class="cls-4" d="M24.515,1.915h0a6.538,6.538,0,0,0-9.247,0L13.826,3.357a.881.881,0,0,1-1.245,0L11.162,1.938a6.538,6.538,0,0,0-9.247,0h0a6.538,6.538,0,0,0,0,9.247L12.582,21.851a.881.881,0,0,0,1.245,0l10.688-10.69A6.538,6.538,0,0,0,24.515,1.915Z" transform="translate(13.53 11.137)"/>
      <path id="Path_4454" data-name="Path 4454" class="cls-5" d="M5.335,11.16a6.538,6.538,0,0,1,0-9.247h0A6.505,6.505,0,0,1,8.248.227,6.534,6.534,0,0,0,1.915,1.913h0a6.538,6.538,0,0,0,0,9.247L12.582,21.827a.881.881,0,0,0,1.245,0l1.087-1.087Z" transform="translate(13.53 11.161)"/>
    </g>
    <g id="love-2" data-name="love" transform="translate(1087.406 565.029) rotate(-24)">
      <path id="Path_4450-2" data-name="Path 4450" class="cls-2" d="M8.38,0H36.192a8.32,8.32,0,0,1,8.38,8.258V26.232a8.319,8.319,0,0,1-8.38,8.257H32.2a.341.341,0,0,0-.344.339v8.866a1.177,1.177,0,0,1-2.03.793L20.386,34.6a.346.346,0,0,0-.251-.107H8.38A8.32,8.32,0,0,1,0,26.232V8.257A8.32,8.32,0,0,1,8.38,0Z" transform="translate(0 0)"/>
      <path id="Path_4451-2" data-name="Path 4451" class="cls-3" d="M0,30.325a.343.343,0,0,1,.328-.357H4.136c4.415,0,7.994-3.893,7.994-8.7V2.345A9.422,9.422,0,0,0,11.835,0,8.255,8.255,0,0,1,16,7.175V25.15a8.258,8.258,0,0,1-8.257,8.257H3.813a.339.339,0,0,0-.339.339v8.866a1.157,1.157,0,0,1-2,.793L0,41.838V30.325Z" transform="translate(28.569 1.082)"/>
      <path id="Path_4452-2" data-name="Path 4452" class="cls-2" d="M1.572,1.572h0a5.369,5.369,0,0,1,7.592,0l1.184,1.184a.723.723,0,0,0,1.023,0l1.165-1.165a5.369,5.369,0,0,1,7.592,0h0a5.369,5.369,0,0,1,0,7.592l-8.758,8.758a.723.723,0,0,1-1.023,0L1.572,9.165A5.368,5.368,0,0,1,1.572,1.572Z" transform="translate(11.436 9.144)"/>
      <path id="Path_4453-2" data-name="Path 4453" class="cls-4" d="M1.572,1.572h0a5.369,5.369,0,0,1,7.592,0l1.184,1.184a.723.723,0,0,0,1.023,0l1.165-1.165a5.369,5.369,0,0,1,7.592,0h0a5.369,5.369,0,0,1,0,7.592l-8.758,8.758a.723.723,0,0,1-1.023,0L1.572,9.165A5.368,5.368,0,0,1,1.572,1.572Z" transform="translate(11.436 9.144)"/>
      <path id="Path_4454-2" data-name="Path 4454" class="cls-5" d="M7.865,9.163a5.369,5.369,0,0,0,0-7.592h0A5.341,5.341,0,0,0,5.473.186a5.365,5.365,0,0,1,5.2,1.385h0a5.369,5.369,0,0,1,0,7.592L1.915,17.921a.723.723,0,0,1-1.023,0L0,17.029Z" transform="translate(20.988 9.164)"/>
    </g>
    <g id="love-3" data-name="love" transform="translate(1109.668 662.879) rotate(-46)">
      <path id="Path_4450-3" data-name="Path 4450" class="cls-2" d="M4.864,0H21.008a4.829,4.829,0,0,1,4.864,4.793V15.227a4.829,4.829,0,0,1-4.864,4.793H18.691a.2.2,0,0,0-.2.2v5.147a.683.683,0,0,1-1.178.46l-5.48-5.742a.2.2,0,0,0-.145-.062H4.864A4.829,4.829,0,0,1,0,15.227V4.793A4.829,4.829,0,0,1,4.864,0Z" transform="translate(0 0)"/>
      <path id="Path_4451-3" data-name="Path 4451" class="cls-3" d="M0,17.6A.2.2,0,0,1,.19,17.4H2.4a4.857,4.857,0,0,0,4.64-5.047V1.361A5.469,5.469,0,0,0,6.87,0,4.792,4.792,0,0,1,9.289,4.165V14.6A4.793,4.793,0,0,1,4.5,19.392H2.213a.2.2,0,0,0-.2.2v5.147a.672.672,0,0,1-1.161.46L0,24.286V17.6Z" transform="translate(16.583 0.628)"/>
      <path id="Path_4452-3" data-name="Path 4452" class="cls-2" d="M.913.913h0a3.116,3.116,0,0,1,4.407,0l.687.687a.42.42,0,0,0,.594,0L7.277.924a3.116,3.116,0,0,1,4.407,0h0a3.116,3.116,0,0,1,0,4.407L6.6,10.415a.42.42,0,0,1-.594,0L.913,5.32A3.116,3.116,0,0,1,.913.913Z" transform="translate(6.638 5.308)"/>
      <path id="Path_4453-3" data-name="Path 4453" class="cls-4" d="M.913.913h0a3.116,3.116,0,0,1,4.407,0l.687.687a.42.42,0,0,0,.594,0L7.277.924a3.116,3.116,0,0,1,4.407,0h0a3.116,3.116,0,0,1,0,4.407L6.6,10.415a.42.42,0,0,1-.594,0L.913,5.32A3.116,3.116,0,0,1,.913.913Z" transform="translate(6.638 5.308)"/>
      <path id="Path_4454-3" data-name="Path 4454" class="cls-5" d="M4.566,5.319a3.116,3.116,0,0,0,0-4.407h0a3.1,3.1,0,0,0-1.388-.8A3.114,3.114,0,0,1,6.2.912h0a3.116,3.116,0,0,1,0,4.407L1.112,10.4a.42.42,0,0,1-.594,0L0,9.885Z" transform="translate(12.183 5.32)"/>
    </g>
    <g id="rating" transform="translate(1141.775 527.893) rotate(-22)">
      <g id="Group_8582" data-name="Group 8582" transform="translate(61.934 10.675)">
        <path id="Path_4455" data-name="Path 4455" class="cls-6" d="M15.156,12.521a.7.7,0,0,1,.195-.39l4.207-4.1a.682.682,0,0,0-.378-1.164l-5.814-.845a.682.682,0,0,1-.514-.373L10.252.38a.682.682,0,0,0-1.223,0l-2.6,5.269a.682.682,0,0,1-.514.373h0l-1.966.286L.584,6.9A.682.682,0,0,0,.207,8.061L4.3,12.076a.681.681,0,0,1,.2.606L3.54,17.789a.683.683,0,0,0,.99.72l4.8-2.287a.68.68,0,0,1,.635,0l4.856,2.647a.682.682,0,0,0,.99-.72l-.341-3.575-.315-1.838a.7.7,0,0,1,0-.215Z" transform="translate(0.484 0)"/>
        <path id="Path_4456" data-name="Path 4456" class="cls-7" d="M15.641,12.938l-5.2-2.735a.68.68,0,0,0-.635,0l-5.2,2.735a.683.683,0,0,1-.99-.72l.994-5.79a.681.681,0,0,0-.2-.606L.207,1.723A.682.682,0,0,1,.584.559L4.433,0A11.658,11.658,0,0,0,15.588,8.273c.123,0,.245,0,.366-.006l.677,3.951A.682.682,0,0,1,15.641,12.938Z" transform="translate(0 6.307)"/>
      </g>
      <g id="Group_8583" data-name="Group 8583" transform="translate(0 10.675)">
        <path id="Path_4457" data-name="Path 4457" class="cls-6" d="M15.156,12.521a.7.7,0,0,1,.195-.39l4.207-4.1a.682.682,0,0,0-.378-1.164l-5.814-.845a.682.682,0,0,1-.514-.373L10.252.38a.682.682,0,0,0-1.223,0l-2.6,5.269a.682.682,0,0,1-.513.373h0l-1.966.286L.584,6.9A.682.682,0,0,0,.207,8.061L4.3,12.076a.681.681,0,0,1,.2.606L3.54,17.789a.683.683,0,0,0,.99.72l4.8-2.287a.68.68,0,0,1,.635,0l4.856,2.647a.682.682,0,0,0,.99-.72l-.34-3.575-.315-1.838a.712.712,0,0,1,0-.215Z" transform="translate(0.484 0)"/>
        <path id="Path_4458" data-name="Path 4458" class="cls-7" d="M15.641,12.938l-5.2-2.735a.68.68,0,0,0-.635,0l-5.2,2.735a.683.683,0,0,1-.99-.72l.994-5.79a.681.681,0,0,0-.2-.606L.207,1.723A.682.682,0,0,1,.584.559L4.433,0A11.659,11.659,0,0,0,15.588,8.273c.123,0,.245,0,.366-.006l.677,3.951A.682.682,0,0,1,15.641,12.938Z" transform="translate(0 6.307)"/>
      </g>
      <path id="Path_4471" data-name="Path 4471" class="cls-6" d="M22.677,19.494a1.068,1.068,0,0,1,.314-.661l6.531-6.366a1.059,1.059,0,0,0-.587-1.806L19.91,9.348a1.059,1.059,0,0,1-.8-.579L15.076.59a1.059,1.059,0,0,0-1.9,0L9.14,8.769a1.062,1.062,0,0,1-.8.579l-2.919.424L.908,11.311a1.058,1.058,0,0,0-.587,1.805l6.2,5.831a1.061,1.061,0,0,1,.305.939L4.748,27.914a1.06,1.06,0,0,0,1.537,1.117l7.341-4.563a1.052,1.052,0,0,1,.986,0l7.241,4.073a1.059,1.059,0,0,0,1.537-1.117l-.212-4.788-.491-2.86A1.055,1.055,0,0,1,22.677,19.494Z" transform="translate(26.973 0)"/>
      <path id="Path_4472" data-name="Path 4472" class="cls-7" d="M24.283,20.1,16.21,15.859a1.052,1.052,0,0,0-.986,0L7.152,20.1a1.06,1.06,0,0,1-1.537-1.117L7.157,10a1.061,1.061,0,0,0-.306-.939L.321,2.693A1.058,1.058,0,0,1,.908.887L7.015,0A16.267,16.267,0,0,0,22.941,12.966a16.2,16.2,0,0,0,1.828-.1l1.051,6.123A1.059,1.059,0,0,1,24.283,20.1Z" transform="translate(25.382 9.773)"/>
    </g>
    <g id="rating-2" data-name="rating" transform="translate(1333.578 586.076) rotate(102)">
      <g id="Group_8582-2" data-name="Group 8582" transform="translate(45.038 7.763)">
        <path id="Path_4455-2" data-name="Path 4455" class="cls-6" d="M11.021,9.105a.51.51,0,0,1,.141-.283L14.222,5.84a.5.5,0,0,0-.275-.846L9.719,4.379a.5.5,0,0,1-.374-.271L7.455.277a.5.5,0,0,0-.89,0L4.675,4.108a.5.5,0,0,1-.374.271h0l-1.43.208L.425,5.016a.5.5,0,0,0-.274.846l2.978,2.92a.5.5,0,0,1,.143.44l-.7,3.714a.5.5,0,0,0,.72.523L6.785,11.8a.494.494,0,0,1,.462,0l3.531,1.925a.5.5,0,0,0,.72-.523l-.248-2.6-.229-1.337a.51.51,0,0,1,0-.156Z" transform="translate(0.352 0)"/>
        <path id="Path_4456-2" data-name="Path 4456" class="cls-7" d="M11.374,9.409,7.593,7.42a.494.494,0,0,0-.462,0L3.349,9.409a.5.5,0,0,1-.72-.523l.723-4.211a.5.5,0,0,0-.143-.44L.151,1.253A.5.5,0,0,1,.425.407L3.223,0a8.478,8.478,0,0,0,8.112,6.016c.09,0,.178,0,.266,0l.493,2.873A.5.5,0,0,1,11.374,9.409Z" transform="translate(0 4.587)"/>
      </g>
      <g id="Group_8583-2" data-name="Group 8583" transform="translate(0 7.763)">
        <path id="Path_4457-2" data-name="Path 4457" class="cls-6" d="M11.021,9.105a.511.511,0,0,1,.141-.283L14.222,5.84a.5.5,0,0,0-.275-.846L9.719,4.379a.5.5,0,0,1-.374-.271L7.455.277a.5.5,0,0,0-.89,0L4.675,4.108a.5.5,0,0,1-.373.271h0l-1.43.208L.425,5.016a.5.5,0,0,0-.274.846l2.978,2.92a.5.5,0,0,1,.143.44l-.7,3.714a.5.5,0,0,0,.72.523L6.785,11.8a.494.494,0,0,1,.462,0l3.531,1.925a.5.5,0,0,0,.72-.523l-.248-2.6-.229-1.337a.518.518,0,0,1,0-.156Z" transform="translate(0.352 0)"/>
        <path id="Path_4458-2" data-name="Path 4458" class="cls-7" d="M11.374,9.409,7.593,7.42a.5.5,0,0,0-.462,0L3.349,9.409a.5.5,0,0,1-.72-.523l.723-4.211a.5.5,0,0,0-.143-.44L.151,1.253A.5.5,0,0,1,.425.407L3.223,0a8.478,8.478,0,0,0,8.112,6.016c.09,0,.178,0,.266,0l.493,2.873A.5.5,0,0,1,11.374,9.409Z" transform="translate(0 4.587)"/>
      </g>
      <path id="Path_4471-2" data-name="Path 4471" class="cls-6" d="M16.491,14.176a.777.777,0,0,1,.229-.481l4.749-4.629a.77.77,0,0,0-.427-1.314L14.478,6.8a.77.77,0,0,1-.58-.421L10.963.429a.77.77,0,0,0-1.381,0L6.647,6.377a.772.772,0,0,1-.579.421l-2.123.309L.661,8.225A.77.77,0,0,0,.234,9.538l4.511,4.241a.771.771,0,0,1,.222.683L3.453,20.3a.771.771,0,0,0,1.118.812l5.338-3.318a.765.765,0,0,1,.717,0l5.265,2.962a.77.77,0,0,0,1.118-.812l-.154-3.482-.357-2.08A.77.77,0,0,1,16.491,14.176Z" transform="translate(19.614 0)"/>
      <path id="Path_4472-2" data-name="Path 4472" class="cls-7" d="M17.658,14.619l-5.87-3.086a.765.765,0,0,0-.717,0L5.2,14.619a.771.771,0,0,1-1.118-.812L5.2,7.27a.772.772,0,0,0-.222-.683L.234,1.958A.77.77,0,0,1,.661.645L5.1,0A11.829,11.829,0,0,0,16.682,9.429a11.779,11.779,0,0,0,1.329-.075l.764,4.453a.77.77,0,0,1-1.117.812Z" transform="translate(18.458 7.107)"/>
    </g>
    <g id="heda_hi" data-name="heda hi" class="cls-8" transform="translate(1146.369 555.799)">
      <path id="Path_4525" data-name="Path 4525" class="cls-9" d="M239.636,104.47a49.556,49.556,0,0,1,2.056,16.785c-.521,11.315-4.633,21.33-10.768,28.126a17.214,17.214,0,0,0,2.382-.013c10.989-.858,19.069-12.122,18.048-25.154-.69-8.805-5.368-16.16-11.718-19.744Z" transform="translate(-117.465 -53.165)"/>
      <path id="Path_4526" data-name="Path 4526" class="cls-10" d="M89.316,214.707,75.009,245.077a18.337,18.337,0,0,0,16.6,26.149H120.22a18.34,18.34,0,0,0,16.6-26.149L122.51,214.707a18.348,18.348,0,0,0-33.194,0Z" transform="translate(-37.254 -103.886)"/>
      <path id="Path_4527" data-name="Path 4527" class="cls-10" d="M117.264,33.391a5.418,5.418,0,0,0,2.518-3.278c1.36-4.331-1.269-7.3-4.665-9.072,4.411-.059,7.215-1.574,4.43-6.432C112.508,2.306,82.69,8.166,82.69,8.166,41.475,17.849,30.772,41.949,30.772,41.949a8.459,8.459,0,0,1,.69-.663A46.267,46.267,0,0,0,20.909,70.459c0,27.879,25.7,50.477,57.4,50.477s57.4-22.6,57.4-50.477c0-14.651-7.1-27.846-18.445-37.068Z" transform="translate(-10.636 -3.469)"/>
      <path id="Path_4528" data-name="Path 4528" class="cls-11" d="M117.164,174.577s10.813,10.041,21.151-2.062" transform="translate(-59.598 -87.778)"/>
      <path id="Path_4529" data-name="Path 4529" class="cls-12" d="M116.295,330.357a11.561,11.561,0,0,0-22.492,5.36l2.235,9.369a11.561,11.561,0,0,0,22.492-5.36Z" transform="translate(-47.553 -163.551)"/>
      <path id="Path_4530" data-name="Path 4530" class="cls-12" d="M163.1,335.37a11.561,11.561,0,0,0-22.627-4.758l-1.983,9.425a11.561,11.561,0,0,0,22.627,4.758Z" transform="translate(-70.319 -163.528)"/>
      <path id="Path_4531" data-name="Path 4531" class="cls-11" d="M119.746,136.349s9.577-5.891,18.744,1.21" transform="translate(-60.911 -68.214)"/>
      <path id="Path_4532" data-name="Path 4532" class="cls-13" d="M197.9,54.691S188.8,48.441,179.44,48.65Z" transform="translate(-91.276 -24.768)"/>
      <path id="Path_4533" data-name="Path 4533" class="cls-11" d="M197.9,54.691S188.8,48.441,179.44,48.65" transform="translate(-91.276 -24.768)"/>
      <path id="Path_4534" data-name="Path 4534" class="cls-9" d="M13.177,104.47a49.517,49.517,0,0,0-2.095,16.778c.494,11.316,4.587,21.337,10.7,28.152a17.136,17.136,0,0,1-2.381-.019C8.414,148.49.36,137.207,1.414,124.181c.709-8.805,5.407-16.147,11.763-19.711Z" transform="translate(-0.672 -53.165)"/>
      <path id="Path_4535" data-name="Path 4535" class="cls-14" d="M77.123,110.046c-1.406,5.2-4.815,9.683-8.477,13.52-4.665,4.884-10.143,9.813-17.423,8.63-9.59-1.548-16.74-12.688-16.74-21.883,0-12.466,9.753-22.573,21.782-22.573,6.343,0,12.739,3.479,17,8.031,4.177,4.468,5.179,9.391,3.858,14.275Z" transform="translate(-17.54 -44.655)"/>
      <path id="Path_4536" data-name="Path 4536" class="cls-15" d="M77.123,110.046c-1.406,5.2-4.815,9.683-8.477,13.52-4.665,4.884-10.143,9.813-17.423,8.63-9.59-1.548-16.74-12.688-16.74-21.883,0-12.466,9.753-22.573,21.782-22.573,6.343,0,12.739,3.479,17,8.031,4.177,4.468,5.179,9.391,3.858,14.275Z" transform="translate(-17.54 -44.655)"/>
      <path id="Path_4537" data-name="Path 4537" class="cls-14" d="M155.133,110.046c1.406,5.2,4.815,9.683,8.478,13.52,4.665,4.884,10.143,9.813,17.423,8.63,9.59-1.548,16.74-12.688,16.74-21.883,0-12.466-9.752-22.573-21.782-22.573-6.344,0-12.739,3.479-17,8.031-4.177,4.468-5.179,9.391-3.858,14.275Z" transform="translate(-78.634 -44.655)"/>
      <path id="Path_4538" data-name="Path 4538" class="cls-15" d="M155.133,110.046c1.406,5.2,4.815,9.683,8.478,13.52,4.665,4.884,10.143,9.813,17.423,8.63,9.59-1.548,16.74-12.688,16.74-21.883,0-12.466-9.752-22.573-21.782-22.573-6.344,0-12.739,3.479-17,8.031-4.177,4.468-5.179,9.391-3.858,14.275Z" transform="translate(-78.634 -44.655)"/>
      <path id="Path_4539" data-name="Path 4539" class="cls-9" d="M131.54,261.235c-6.434,4.247-15.276,6.867-25.029,6.867s-18.594-2.621-25.029-6.867l-5.921,12.571a18.269,18.269,0,0,0,8.881,24.373,11.46,11.46,0,0,0-.345,6.5l2.238,9.365a11.552,11.552,0,0,0,21.119,3.316,11.5,11.5,0,0,0,7.508,5.339,11.534,11.534,0,0,0,13.7-8.922l1.984-9.423a11.45,11.45,0,0,0-.67-6.874,18.287,18.287,0,0,0,7.495-23.678l-5.921-12.571Z" transform="translate(-37.54 -132.907)"/>
      <path id="Path_4540" data-name="Path 4540" class="cls-16" d="M98,251s25.707,28.168,52.081,35.376" transform="translate(-49.85 -127.701)"/>
      <path id="Path_4541" data-name="Path 4541" class="cls-17" d="M96,249s26.192,28.95,53.063,36.358" transform="translate(-48.833 -126.684)"/>
      <path id="Path_4542" data-name="Path 4542" class="cls-18" d="M194.782,322.691a8.942,8.942,0,1,0-8.946-8.942A8.944,8.944,0,0,0,194.782,322.691Z" transform="translate(-94.53 -155.071)"/>
      <path id="Path_4543" data-name="Path 4543" class="cls-1" d="M54.5,101.631c.078-2.517,8.087-5.072,8.861-3.843.716,1.138-3.923,6.841-7.092,5.808C55.453,103.328,54.477,102.522,54.5,101.631Z" transform="translate(-27.724 -49.604)"/>
      <path id="Path_4544" data-name="Path 4544" class="cls-1" d="M170.819,102.955c.078-2.517,8.087-5.072,8.861-3.843.716,1.138-3.923,6.841-7.092,5.807C171.769,104.652,170.793,103.845,170.819,102.955Z" transform="translate(-86.891 -50.277)"/>
      <g id="Group_8589" data-name="Group 8589" class="cls-19" transform="translate(17.632 57.776)">
        <path id="Path_4545" data-name="Path 4545" class="cls-20" d="M35.978,117.838a5.9,5.9,0,0,0,.82,1.366A14.324,14.324,0,0,1,35.978,117.838Z" transform="translate(-35.933 -117.741)"/>
        <path id="Path_4546" data-name="Path 4546" class="cls-20" d="M48.492,124.643a10.093,10.093,0,0,0-.943,2.679c-5.185-.657-8.451-4.552-9.889-6.717C40.386,124.058,46.729,124.571,48.492,124.643Z" transform="translate(-36.788 -119.148)"/>
        <path id="Path_4547" data-name="Path 4547" class="cls-20" d="M35.931,117.737c-.013-.032-.032-.058-.045-.1A.746.746,0,0,1,35.931,117.737Z" transform="translate(-35.885 -117.64)"/>
        <path id="Path_4548" data-name="Path 4548" class="cls-20" d="M49.816,118.791a2.876,2.876,0,0,0,.436.722A7.727,7.727,0,0,1,49.816,118.791Z" transform="translate(-42.971 -118.225)"/>
        <path id="Path_4549" data-name="Path 4549" class="cls-20" d="M49.789,118.737a.355.355,0,0,1-.026-.052A.292.292,0,0,0,49.789,118.737Z" transform="translate(-42.944 -118.172)"/>
        <path id="Path_4550" data-name="Path 4550" class="cls-20" d="M56.519,122.42a10.125,10.125,0,0,0-.989,1.346,7.876,7.876,0,0,1-4.827-3.492c1.483,1.873,4.971,2.12,5.816,2.153Z" transform="translate(-43.423 -118.98)"/>
      </g>
      <g id="Group_8590" data-name="Group 8590" class="cls-19" transform="translate(28.412 56.956)">
        <path id="Path_4551" data-name="Path 4551" class="cls-21" d="M68.308,136.925a10.477,10.477,0,1,0-10.481-10.477A10.479,10.479,0,0,0,68.308,136.925Z" transform="translate(-57.827 -115.972)"/>
        <path id="Path_4552" data-name="Path 4552" class="cls-22" d="M63.969,132.339a4.656,4.656,0,1,0-4.658-4.656A4.657,4.657,0,0,0,63.969,132.339Z" transform="translate(-58.582 -119.561)"/>
      </g>
      <g id="Group_8591" data-name="Group 8591" class="cls-19" transform="translate(82.745 56.592)">
        <path id="Path_4553" data-name="Path 4553" class="cls-21" d="M178.982,136.366A10.567,10.567,0,1,0,168.41,125.8,10.57,10.57,0,0,0,178.982,136.366Z" transform="translate(-168.41 -115.231)"/>
        <path id="Path_4554" data-name="Path 4554" class="cls-22" d="M179.622,126.805a4.7,4.7,0,1,0-4.7-4.7A4.7,4.7,0,0,0,179.622,126.805Z" transform="translate(-171.724 -116.342)"/>
      </g>
      <g id="Group_8592" data-name="Group 8592" class="cls-19" transform="translate(100.792 54.999)">
        <path id="Path_4555" data-name="Path 4555" class="cls-20" d="M230.178,112.2a5.726,5.726,0,0,1-.644,1.47A15.984,15.984,0,0,0,230.178,112.2Z" transform="translate(-217.55 -112.096)"/>
        <path id="Path_4556" data-name="Path 4556" class="cls-20" d="M208.532,120.627a10.272,10.272,0,0,1,1.3,2.556c5.1-1.327,7.866-5.645,9.024-8.005-2.277,3.8-8.555,5.144-10.319,5.443Z" transform="translate(-206.866 -113.611)"/>
        <path id="Path_4557" data-name="Path 4557" class="cls-20" d="M230.845,112.092a1.087,1.087,0,0,1,.039-.1S230.871,112.027,230.845,112.092Z" transform="translate(-218.216 -111.988)"/>
        <path id="Path_4558" data-name="Path 4558" class="cls-20" d="M216.756,114.953a3,3,0,0,1-.345.78C216.6,115.35,216.71,115.064,216.756,114.953Z" transform="translate(-210.874 -113.496)"/>
        <path id="Path_4559" data-name="Path 4559" class="cls-20" d="M217.113,114.9a.516.516,0,0,1,.02-.052S217.126,114.867,217.113,114.9Z" transform="translate(-211.231 -113.442)"/>
        <path id="Path_4560" data-name="Path 4560" class="cls-20" d="M205.142,119.435a10.363,10.363,0,0,1,1.165,1.216,7.919,7.919,0,0,0,4.372-4.123C209.436,118.6,205.975,119.292,205.142,119.435Z" transform="translate(-205.142 -114.297)"/>
      </g>
      <path id="Path_4561" data-name="Path 4561" class="cls-23" d="M157.07,28.929a15.751,15.751,0,0,1-11.262-1.99,33.074,33.074,0,0,1-18.191,7.7c-4.8.507-6.09-.54-6.1-5.313a67.5,67.5,0,0,1,4.893-25.414c1.7-4.234,3.318-4.812,7.385-2.757a32.621,32.621,0,0,1,14.2,13.7,15.321,15.321,0,0,1,11.2,2.029c.813-.637,1.744-1.463,2.772-2.14,5.14-3.408,10.683-5.71,16.942-5.794,3.012-.045,3.962.774,4.268,3.765.631,6.224-.273,12.356-1.666,18.391a68.745,68.745,0,0,1-3.155,9.969c-1.112,2.783-2.44,3.232-5.218,2.12a32.477,32.477,0,0,1-16.077-14.255Z" transform="translate(-61.814 -0.027)"/>
      <path id="Path_4562" data-name="Path 4562" class="cls-24" d="M200.372,34.622l-.182-1.262c8.068-1.164,14.163-6.289,14.652-2.913s-6.4,3.011-14.47,4.175Z" transform="translate(-101.831 -14.935)"/>
      <path id="Path_4563" data-name="Path 4563" class="cls-24" d="M200.567,45.7l.215-.689c2.96.923,6.135-.592,5.556,1.262s-2.811.358-5.778-.566Z" transform="translate(-102.02 -22.922)"/>
      <path id="Path_4564" data-name="Path 4564" class="cls-24" d="M161.965,44.849l-.182.514c-2.928-1.04-5.96-.2-5.465-1.58s2.726.026,5.654,1.067Z" transform="translate(-79.487 -22.001)"/>
      <path id="Path_4565" data-name="Path 4565" class="cls-24" d="M152.775,51.889l-.306-1.236c-7.911,1.964-15.491-.481-14.671,2.829S144.863,53.853,152.775,51.889Z" transform="translate(-70.063 -25.79)"/>
      <path id="Path_4566" data-name="Path 4566" class="cls-10" d="M182.647,213.222s12.254-9.1,9.249-21.2c0,0-4-6.329.023-8.014s4.425,1.7,4.425,1.7,11.085-5.728,13.858-.126-.968,14.579-7.3,18.614-18.854,11.787-18.854,11.787l-1.4-2.764Z" transform="translate(-92.905 -93.173)"/>
      <path id="Path_4567" data-name="Path 4567" class="cls-10" d="M86.7,244.15s-6.033,14.021,2.635,22.98c0,0,6.635,3.468,4,6.943s-4.679.752-4.679.752-6.716,10.516-11.925,7.061-6.476-13.1-3.022-19.766S84.658,242.5,84.658,242.5l2.457,1.474Z" transform="translate(-36.508 -123.377)"/>
      <path id="Path_4568" data-name="Path 4568" class="cls-25" d="M217.452,207.123s-2.346-4.739-6.376-5.3Z" transform="translate(-107.368 -102.684)"/>
      <path id="Path_4569" data-name="Path 4569" class="cls-15" d="M217.452,207.123s-2.346-4.739-6.376-5.3" transform="translate(-107.368 -102.684)"/>
    </g>
  </g>
</svg>
